<?xml version="1.0" encoding="iso-8859-1"?>
<!-- Generator: Adobe Illustrator 19.0.0, SVG Export Plug-In . SVG Version: 6.00 Build 0)  -->
<svg version="1.1" id="Capa_1" xmlns="http://www.w3.org/2000/svg" xmlns:xlink="http://www.w3.org/1999/xlink" x="0px" y="0px"
	 viewBox="0 0 296.4 296.4" style="enable-background:new 0 0 296.4 296.4;" xml:space="preserve">
<g>
	<g>
		<g>
			<path d="M152.6,146c40.4,0,72.8-32.8,72.8-72.8S192.6,0,152.6,0S79.8,32.8,79.8,72.8S112.2,146,152.6,146z M152.6,12.8
				c33.2,0,60,26.8,60,60s-26.8,60-60,60s-60-26.8-60-60S119.4,12.8,152.6,12.8z"/>
			<path d="M234.2,179.6H229V160c0-3.6-2.8-6.4-6.4-6.4H91c-3.6,0-6.4,2.8-6.4,6.4v26c0,3.6,2.8,6.4,6.4,6.4h5.2v13.2h-10
				c-3.6,0-6.4,2.8-6.4,6.4v19.6H62.2c-3.6,0-6.4,2.8-6.4,6.4v26c0,3.6,2.8,6.4,6.4,6.4h7.2V290c0,3.6,2.8,6.4,6.4,6.4h131.6
				c3.6,0,6.4-2.8,6.4-6.4v-26c0-3.6-2.8-6.4-6.4-6.4h-7.2v-13.2h17.6c3.6,0,6.4-2.8,6.4-6.4v-19.6h10c3.6,0,6.4-2.8,6.4-6.4v-26
				C240.6,182.8,237.8,179.6,234.2,179.6z M97.4,166.8h118.8V180H102.6h-5.2V166.8z M68.6,257.2V244h17.6h101.2v13.2H75.8H68.6z
				 M201,270v13.2h0H82.2V270h111.6H201z M211.4,231.6h-17.6H92.6v-13.2h10h108.8V231.6z M227.8,205.6h-10H109v-13.2h113.6h5.2
				V205.6z"/>
			<path d="M134.2,108.8c1.2,0.4,2.4,0.8,3.6,1.2c1.2,0.4,2.4,0.8,4,0.8c1.2,0.4,2.8,0.4,4,0.8h0.8v7.6v2.4h2.4h7.2h2.4v-2.4v-8h0.8
				c1.6-0.4,3.2-1.2,4.8-2s2.8-1.6,4-2.8c1.2-1.2,2.4-2.4,3.2-3.6c0.8-1.2,1.6-2.8,2.4-4c0.8-1.6,1.2-3.2,1.6-4.8
				c0.4-1.6,0.4-3.2,0.4-4.8c0-1.2,0-2.8-0.4-4c-0.4-1.2-0.8-2.8-1.2-4c-0.4-1.2-1.2-2.4-2-3.2c-0.8-1.2-1.6-2-2.8-2.8
				c-1.2-0.8-2-2-3.2-2.8c-1.2-0.8-2.4-1.6-3.6-2.4s-2.8-1.6-4-2c-1.6-0.8-2.8-1.2-4.4-1.6c-0.8-0.4-1.6-0.4-2.4-0.8
				c-0.8-0.4-1.6-0.8-2-0.8c-0.8-0.4-1.2-0.8-2-1.2c-0.4-0.4-1.2-0.8-1.6-1.6c-0.4-0.4-0.8-1.2-1.2-2c-0.4-0.8-0.4-1.6-0.4-2.4
				s0-1.6,0-2.4c0-0.8,0.4-1.6,0.8-2c0.4-0.8,0.8-1.2,1.2-2c0.4-0.8,1.2-1.2,1.6-1.6c0.8-0.4,1.6-0.8,2.4-1.2
				c0.8-0.4,1.6-0.4,2.8-0.4c0.4,0,1.2,0,1.6,0c0.4,0,1.2,0,1.6,0c0.8,0,1.6,0,2.8,0.4c0.8,0,2,0.4,2.8,0.4s1.2,0.4,2,0.4
				c0.8,0.4,1.6,0.4,2,0.4l2.8,0.8l0.4-2.8l1.2-8.4l0.4-2l-2-0.8c-0.8-0.4-1.2-0.4-2-0.4c-0.4,0-1.2-0.4-2-0.4s-1.6-0.4-2.4-0.4
				s-1.6-0.4-2.4-0.4h-0.8v-7.2v-2.4h-3.2H149h-2.4v2.4v8h-0.8c-1.6,0.4-3.2,1.2-4.4,2c-1.2,0.8-2.8,1.6-4,2.8
				c-1.2,1.2-2.4,2.4-3.2,3.6s-1.6,2.8-2.4,4c-0.8,1.6-1.2,3.2-1.6,4.8c-0.4,1.6-0.4,3.2-0.4,5.2c0,1.2,0,2.8,0.4,4
				c0.4,1.2,0.8,2.8,1.2,4c0.4,1.2,1.2,2.4,2,3.2c0.8,1.2,1.6,2,2.8,2.8s2.4,1.6,3.2,2.4c1.2,0.8,2.4,1.6,4,2.4
				c1.6,0.8,2.8,1.2,4.4,2c1.6,0.8,2.8,1.2,4.4,1.6c0.8,0.4,1.6,0.4,2,0.8c0.8,0.4,1.2,0.8,2,1.2c0.8,0.4,1.2,0.8,1.6,1.2
				c0.4,0.4,0.8,0.8,1.2,1.6c0.4,0.4,0.8,1.2,0.8,2c0.4,0.8,0.4,1.6,0.4,2.4c0,0.8,0,1.6,0,2.4s-0.4,1.6-0.8,2
				c-0.4,0.8-0.8,1.2-1.6,1.6c-0.4,0.4-1.2,0.8-2,1.2c-0.8,0.4-1.2,0.8-2,0.8c-0.8,0.4-1.6,0.4-2.4,0.4s-1.2,0-2,0s-1.2,0-2,0
				s-2,0-2.8-0.4c-0.8,0-2-0.4-2.8-0.4c-1.2-0.4-2.4-0.4-3.2-0.8c-1.2-0.4-2.4-0.8-3.2-1.2c-0.4,0-0.8-0.4-1.2-0.4
				c-0.4-0.4-0.8-0.4-1.2-0.8l-3.2-1.6l-0.4,3.2l-1.2,9.2l-0.4,1.6l1.6,0.8C131.8,107.6,133,108.4,134.2,108.8z"/>
		</g>
	</g>
</g>
<g>
</g>
<g>
</g>
<g>
</g>
<g>
</g>
<g>
</g>
<g>
</g>
<g>
</g>
<g>
</g>
<g>
</g>
<g>
</g>
<g>
</g>
<g>
</g>
<g>
</g>
<g>
</g>
<g>
</g>
</svg>
