<?xml version="1.0" encoding="iso-8859-1"?>
<!-- Generator: Adobe Illustrator 18.0.0, SVG Export Plug-In . SVG Version: 6.00 Build 0)  -->
<!DOCTYPE svg PUBLIC "-//W3C//DTD SVG 1.1//EN" "http://www.w3.org/Graphics/SVG/1.1/DTD/svg11.dtd">
<svg version="1.1" id="Capa_1" xmlns="http://www.w3.org/2000/svg" xmlns:xlink="http://www.w3.org/1999/xlink" x="0px" y="0px"
	 viewBox="0 0 297 297" style="enable-background:new 0 0 297 297;" xml:space="preserve">
<path d="M275.086,39.558h-21.6V23.567C253.486,10.572,242.914,0,229.919,0H51.258C38.263,0,27.691,10.572,27.691,23.567v15.991
	h-5.777c-5.548,0-10.047,4.498-10.047,10.047s4.498,10.047,10.047,10.047h5.777v15.991c0,12.995,10.572,23.567,23.567,23.567
	h178.661c12.995,0,23.567-10.572,23.567-23.567V59.651h11.553v59.023H148.5c-5.548,0-10.047,4.498-10.047,10.047v37.423h-1.256
	c-12.395,0-22.479,10.084-22.479,22.479v85.898c0,12.395,10.084,22.479,22.479,22.479h22.605c12.395,0,22.479-10.084,22.479-22.479
	v-85.898c0-12.395-10.084-22.479-22.479-22.479h-1.256v-27.377h116.54c5.548,0,10.047-4.498,10.047-10.047V49.605
	C285.133,44.057,280.634,39.558,275.086,39.558z M233.393,75.642c0,1.916-1.558,3.474-3.474,3.474H51.258
	c-1.916,0-3.474-1.558-3.474-3.474V23.567c0-1.916,1.558-3.474,3.474-3.474h178.661c1.916,0,3.474,1.558,3.474,3.474V75.642z
	 M162.188,188.623v85.898c0,1.316-1.07,2.386-2.386,2.386h-22.605c-1.316,0-2.386-1.07-2.386-2.386v-85.898
	c0-1.316,1.07-2.386,2.386-2.386h22.605C161.118,186.237,162.188,187.308,162.188,188.623z"/>
<g>
</g>
<g>
</g>
<g>
</g>
<g>
</g>
<g>
</g>
<g>
</g>
<g>
</g>
<g>
</g>
<g>
</g>
<g>
</g>
<g>
</g>
<g>
</g>
<g>
</g>
<g>
</g>
<g>
</g>
</svg>
